<svg xmlns="http://www.w3.org/2000/svg" xmlns:xlink="http://www.w3.org/1999/xlink" width="500" zoomAndPan="magnify" viewBox="0 0 375 374.999991" height="500" preserveAspectRatio="xMidYMid meet" version="1.0"><defs><clipPath id="a27969b152"><path d="M 66.328125 55 L 138 55 L 138 320 L 66.328125 320 Z M 66.328125 55 " clip-rule="nonzero"/></clipPath><clipPath id="b35f357784"><path d="M 152.113281 0.265625 L 223 0.265625 L 223 374.695312 L 152.113281 374.695312 Z M 152.113281 0.265625 " clip-rule="nonzero"/></clipPath><clipPath id="ec475975ff"><path d="M 238 55.414062 L 308.578125 55.414062 L 308.578125 319.664062 L 238 319.664062 Z M 238 55.414062 " clip-rule="nonzero"/></clipPath></defs><rect x="-37.5" width="450" fill="#ffffff" y="-37.499999" height="449.999989" fill-opacity="1"/><rect x="-37.5" width="450" fill="#ffffff" y="-37.499999" height="449.999989" fill-opacity="1"/><g clip-path="url(#a27969b152)"><path fill="#32a1f3" d="M 87.429688 285.433594 L 137.03125 319.410156 L 137.03125 244.226562 L 116.289062 249.601562 L 137.03125 215.519531 L 137.03125 129.566406 C 137.03125 113.554688 129.136719 98.574219 115.929688 89.527344 L 66.328125 55.550781 L 66.328125 245.398438 C 66.328125 261.40625 74.222656 276.386719 87.429688 285.433594 " fill-opacity="1" fill-rule="nonzero"/></g><g clip-path="url(#b35f357784)"><path fill="#32a1f3" d="M 152.167969 218.554688 L 171.0625 249.601562 L 152.167969 244.707031 L 152.167969 300.675781 C 152.167969 316.683594 160.0625 331.660156 173.269531 340.710938 L 222.871094 374.695312 L 222.871094 134.894531 L 203.609375 139.886719 L 222.871094 108.238281 L 222.871094 74.285156 C 222.871094 58.277344 214.976562 43.300781 201.769531 34.25 L 152.167969 0.265625 L 152.167969 218.554688 " fill-opacity="1" fill-rule="nonzero"/></g><g clip-path="url(#ec475975ff)"><path fill="#32a1f3" d="M 238.007812 55.550781 L 238.007812 106.421875 L 258.371094 139.886719 L 238.007812 134.609375 L 238.007812 245.398438 C 238.007812 261.40625 245.90625 276.386719 259.113281 285.433594 L 308.710938 319.410156 L 308.710938 129.566406 C 308.710938 113.554688 300.816406 98.574219 287.605469 89.527344 L 238.007812 55.550781 " fill-opacity="1" fill-rule="nonzero"/></g></svg>